<svg xmlns="http://www.w3.org/2000/svg" viewBox="0 0 3725.5 459.5"><path d="M44.3 459.5c-12.3 0-22.8-4.1-31.4-12.3-8.6-8.4-12.9-18.4-12.9-30 0-11.8 4.3-21.9 12.9-30.3s19.1-12.6 31.4-12.6c12.5 0 23.1 4.2 31.7 12.6 8.8 8.4 13.2 18.5 13.2 30.3 0 11.6-4.4 21.6-13.2 30-8.6 8.2-19.2 12.3-31.7 12.3zm492.2-7h-80L245.6 119.9c-5.3-8.4-9.7-17.1-13.2-26.2h-1.8c1.6 9.7 2.5 30.4 2.5 62.2v296.6h-70.8V0h85.3l203.8 324.7c8.6 13.5 14.2 22.7 16.6 27.8h1.2c-2.1-12-3.1-32.3-3.1-60.9V0h70.5v452.5h-.1zm344.7 0H633.5V0h237.9v63.7H706.7v128.1h151.7v63.4H706.7V389h174.5v63.5zm352.2-388.8h-126.8v388.8h-73.3V63.7H906.8V0h326.6v63.7z" fill="#512bd4"/><linearGradient id="prefix__a" gradientUnits="userSpaceOnUse" x1="1233.4" y1="229.8" x2="1546.9" y2="229.8"><stop offset="0" stop-color="#512bd4"/><stop offset="1"/></linearGradient><path d="M1233.4 174.5h157.4v-59.6l156.1 114.9-156.1 114.9V285h-157.4V174.5z" fill="url(#prefix__a)"/><path d="M1704.5 370c0 1.9-2.2 3.4-4.9 3.4-3.1.3-5.3-1.2-5.3-3.4 0-1.9 2.2-3.4 4.9-3.4 2.9-.3 5.3 1.2 5.3 3.4zm-29.5-4.3c-.7 1.9 1.2 4.1 4.1 4.7 2.5 1 5.3 0 5.9-1.9s-1.2-4.1-4.1-4.9c-2.5-.7-5.3.2-5.9 2.1zm42-1.6c-2.8.7-4.7 2.5-4.4 4.7.3 1.9 2.8 3.1 5.6 2.5 2.8-.7 4.7-2.5 4.4-4.4-.3-1.9-2.9-3.1-5.6-2.8zM1779.5 0c-131.8 0-232.6 100-232.6 231.8 0 105.4 66.3 195.5 161 227.3 12.2 2.2 16.4-5.3 16.4-11.5 0-5.9-.3-38.4-.3-58.3 0 0-66.5 14.3-80.5-28.3 0 0-10.8-27.6-26.4-34.8 0 0-21.8-14.9 1.5-14.6 0 0 23.7 1.9 36.7 24.5 20.8 36.7 55.7 26.1 69.3 19.9 2.2-15.2 8.4-25.7 15.2-32-53.1-5.9-106.7-13.6-106.7-105 0-26.1 7.2-39.2 22.4-56-2.5-6.2-10.5-31.6 2.5-64.5 19.9-6.2 65.6 25.7 65.6 25.7 19-5.3 39.4-8.1 59.7-8.1s40.7 2.8 59.7 8.1c0 0 45.7-31.9 65.6-25.7 13 33 4.9 58.3 2.5 64.5 15.2 16.8 24.5 29.9 24.5 56 0 91.7-56 99-109.1 105 8.7 7.5 16.2 21.8 16.2 44.1 0 32-.3 71.6-.3 79.4 0 6.2 4.4 13.7 16.4 11.5 95-31.5 159.4-121.7 159.4-227.1C2018.2 100 1911.3 0 1779.5 0zm-140.3 327.7c-1.2 1-1 3.1.7 4.9 1.5 1.5 3.7 2.2 4.9 1 1.2-1 1-3.1-.7-4.9-1.4-1.6-3.6-2.2-4.9-1zM1629 320c-.7 1.2.3 2.8 2.2 3.7 1.5 1 3.4.7 4.1-.7.7-1.2-.3-2.8-2.2-3.7-1.9-.5-3.4-.2-4.1.7zm30.8 33.8c-1.5 1.2-1 4.1 1.2 5.9 2.2 2.2 4.9 2.5 6.2 1 1.2-1.2.7-4.1-1.2-5.9-2.1-2.2-5-2.5-6.2-1zm-10.9-13.9c-1.5 1-1.5 3.4 0 5.6s4.1 3.1 5.3 2.2c1.5-1.2 1.5-3.7 0-5.9-1.3-2.2-3.7-3.2-5.3-1.9z"/><path d="M2567.1 62.1h-39.8V20.9c0-9.4-6.9-17.5-16.2-18.9-1.6-.2-40.4-5.9-87.1 2.6-52.1 9.5-93.6 32.8-121.8 68.2-28.2-35.3-69.7-58.7-121.8-68.2-46.7-8.5-85.5-2.9-87.1-2.6-9.3 1.4-16.2 9.4-16.2 18.9v41.2h-39.8c-10.5 0-19.1 8.5-19.1 19.1v359.2c0 6.2 3 12 8 15.5 5 3.6 11.5 4.5 17.3 2.5 1.4-.5 144.3-49.2 250.8-.7 5 2.3 10.8 2.3 15.8 0 106.2-48.5 249.4.2 250.8.7 2 .7 4.2 1.1 6.3 1.1 3.9 0 7.8-1.2 11-3.5 5-3.6 8-9.4 8-15.5V81.2c0-10.5-8.6-19.1-19.1-19.1zm-510.9 352.8V100.3h20.8v253.9c0 5.5 2.4 10.8 6.6 14.4 4.2 3.6 9.8 5.2 15.2 4.4 1.1-.2 83.9-11.5 144.4 30-74.5-12.8-149.1 2-187 11.9zm226.9-29.1c-26.6-24.1-61.4-40.4-102.7-47.9-19.9-3.6-38.4-4.7-53.1-4.7-4.4 0-8.4.1-12.1.2v-295c36.6-1.7 125.8 2.3 168 73.8l-.1 273.6zm38.1-273.6c42.1-71.2 131.3-75.3 168-73.8v295c-16-.6-39.4-.3-65.3 4.4-41.4 7.5-76.1 23.8-102.7 47.9V112.2zM2361 403c60.5-41.5 143.4-30.2 144.4-30 5.5.8 11.1-.8 15.3-4.4s6.6-8.9 6.6-14.4V100.3h20.8V415c-37.9-10-112.5-24.8-187.1-12zM3095.4 25.6h55.2l-122.8 434.6h-59.7l-89.4-317.6c-3.8-13.5-6.2-28.3-7-44.3h-1.2c-1.2 15-3.8 29.5-7.9 43.6l-90 318.2h-59.1L2586.2 25.6h56.1l92.4 333.4c3.8 13.9 6.3 28.5 7.3 43.6h1.5c1-10.7 4.1-25.3 9.4-43.6L2849 25.6h48.8l92.1 335.8c3.2 11.5 5.7 25.1 7.3 40.6h1.2c.8-10.5 3.5-24.4 8.2-41.8l88.8-334.6zm113.1 434.6h49.7V149.8h-49.7v310.4zm25.4-453.7c-8.9 0-16.5 3.1-22.7 9.2-6.3 6.2-9.4 13.9-9.4 23.2s3.1 17 9.4 23c6.3 6.1 13.8 9.1 22.7 9.1 9.1 0 16.8-3.1 23.2-9.4s9.5-13.8 9.5-22.7c0-9.3-3.2-17-9.5-23.2s-14.1-9.2-23.2-9.2zm371.3 143.3H3540l-130.3 142.1h-1.2V.7h-49.7v459.5h49.7V311.1h1.2l137 149.1h69.7l-155.2-160.6 144-149.8zm62.2 310.4h49.7V149.8h-49.7v310.4zM3692.8 71c9.1 0 16.8-3.1 23.2-9.4s9.5-13.8 9.5-22.7c0-9.3-3.2-17-9.5-23.2-6.4-6.2-14.1-9.2-23.2-9.2-8.9 0-16.5 3.1-22.7 9.2-6.3 6.2-9.4 13.9-9.4 23.2s3.1 17 9.4 23c6.2 6.1 13.8 9.1 22.7 9.1z"/></svg>