<svg xmlns="http://www.w3.org/2000/svg" viewBox="0 0 1233.4 1233.4"><linearGradient id="gradient" gradientUnits="userSpaceOnUse" x1="616.7" y1="925.05" x2="616.7" y2="308.35"><stop offset="0" stop-color="#512bd4"/><stop offset="1"/></linearGradient><path fill="url(#gradient)" d="M770.8 616.7V308.3H462.2v308.4H308.3L616.7 925 925 616.7z"/><path d="M1209.3 731.5H1159v-52c0-11.9-8.7-22.1-20.5-23.9-2-.3-51-7.5-110 3.3-65.8 12-118.2 41.4-153.8 86.1-35.6-44.6-88-74.1-153.8-86.1-59-10.7-108-3.7-110-3.3-11.7 1.8-20.5 11.9-20.5 23.9v52h-50.3c-13.3 0-24.1 10.7-24.1 24.1v453.6c0 7.8 3.8 15.2 10.1 19.6 6.3 4.5 14.5 5.7 21.8 3.2 1.8-.6 182.2-62.1 316.7-.9 6.3 2.9 13.6 2.9 20 0 134.1-61.3 315 .3 316.7.9 2.5.9 5.3 1.4 8 1.4 4.9 0 9.9-1.5 13.9-4.4 6.3-4.5 10.1-11.9 10.1-19.6V755.6c.1-13.2-10.8-24.1-24-24.1zM564 1177.1V779.8h26.3v320.7c0 6.9 3 13.6 8.3 18.2 5.3 4.5 12.4 6.6 19.2 5.6 1.4-.3 106-14.5 182.4 37.9-94.1-16.3-188.3 2.4-236.2 14.9zm286.6-36.8c-33.6-30.4-77.5-51-129.7-60.5-25.1-4.5-48.5-5.9-67.1-5.9-5.6 0-10.6.1-15.3.3V701.6c46.2-2.1 158.9 2.9 212.2 93.2l-.1 345.5zm48.1-345.5c53.2-89.9 165.8-95.1 212.2-93.2v372.6c-20.2-.8-49.8-.4-82.5 5.6-52.3 9.5-96.1 30.1-129.7 60.5V794.8zM949 1162c76.4-52.4 181.1-38.1 182.4-37.9 6.9 1 14-1 19.3-5.6 5.3-4.5 8.3-11.2 8.3-18.2V779.8h26.3v397.4c-47.9-12.6-142.1-31.3-236.3-15.2z"/><path d="M199.1 1120.4c0 2.4-2.8 4.3-6.2 4.3-3.9.4-6.7-1.5-6.7-4.3 0-2.4 2.8-4.3 6.2-4.3 3.6-.4 6.7 1.5 6.7 4.3zm-37.3-5.5c-.9 2.4 1.5 5.2 5.2 5.9 3.2 1.3 6.7 0 7.5-2.4.8-2.4-1.5-5.2-5.2-6.2-3.2-.8-6.7.3-7.5 2.7zm53.1-2c-3.5.9-5.9 3.2-5.6 5.9.4 2.4 3.5 3.9 7.1 3.2 3.5-.9 5.9-3.2 5.6-5.6s-3.7-3.9-7.1-3.5zM293.8 653C127.3 653 0 779.3 0 945.8c0 133.1 83.7 247 203.4 287.1 15.4 2.8 20.7-6.7 20.7-14.5 0-7.5-.4-48.5-.4-73.6 0 0-84 18.1-101.7-35.7 0 0-13.6-34.9-33.3-44 0 0-27.5-18.8 1.9-18.4 0 0 29.9 2.4 46.4 30.9 26.3 46.4 70.4 33 87.5 25.1 2.8-19.2 10.6-32.5 19.2-40.4-67.1-7.5-134.8-17.2-134.8-132.6 0-33 9.1-49.5 28.3-70.7-3.2-7.8-13.3-39.9 3.2-81.5 25.1-7.8 82.9 32.5 82.9 32.5 24-6.7 49.8-10.2 75.4-10.2 25.6 0 51.4 3.5 75.4 10.2 0 0 57.7-40.3 82.9-32.5 16.4 41.7 6.2 73.6 3.2 81.5 19.2 21.2 30.9 37.8 30.9 70.7 0 115.8-70.7 125.1-137.8 132.6 11 9.5 20.5 27.5 20.5 55.7 0 40.4-.4 90.4-.4 100.3 0 7.8 5.6 17.3 20.7 14.5C514 1193 595.3 1079 595.3 945.9c0-166.6-135-292.9-301.5-292.9zm-177.2 413.9c-1.5 1.3-1.3 3.9.9 6.2 1.9 1.9 4.7 2.8 6.2 1.3 1.5-1.3 1.3-3.9-.9-6.2-1.8-2-4.6-2.8-6.2-1.3zm-12.9-9.7c-.9 1.5.4 3.5 2.8 4.7 1.9 1.3 4.3.9 5.2-.9.9-1.5-.4-3.5-2.8-4.7-2.4-.6-4.3-.2-5.2.9zm38.9 42.7c-1.9 1.5-1.3 5.2 1.5 7.5 2.8 2.8 6.2 3.2 7.8 1.3 1.5-1.5.9-5.2-1.5-7.5-2.6-2.8-6.3-3.2-7.8-1.3zm-13.8-17.6c-1.9 1.3-1.9 4.3 0 7.1s5.2 3.9 6.7 2.8c1.9-1.5 1.9-4.7 0-7.5-1.6-2.7-4.6-4-6.7-2.4z"/><path d="M44.3 459.5c-12.3 0-22.8-4.1-31.4-12.3-8.6-8.4-12.9-18.4-12.9-30 0-11.8 4.3-21.9 12.9-30.3s19.1-12.6 31.4-12.6c12.5 0 23.1 4.2 31.7 12.6 8.8 8.4 13.2 18.5 13.2 30.3 0 11.6-4.4 21.6-13.2 30-8.6 8.2-19.2 12.3-31.7 12.3zm492.2-7h-80L245.6 119.9c-5.3-8.4-9.7-17.1-13.2-26.2h-1.8c1.6 9.7 2.5 30.4 2.5 62.2v296.6h-70.8V0h85.3l203.8 324.7c8.6 13.5 14.2 22.7 16.6 27.8h1.2c-2.1-12-3.1-32.3-3.1-60.9V0h70.5v452.5h-.1zm344.7 0H633.5V0h237.9v63.7H706.7v128.1h151.7v63.4H706.7V389h174.5v63.5zm352.2-388.8h-126.8v388.8h-73.3V63.7H906.8V0h326.6v63.7z" fill="#512bd4"/></svg>